# xmcd
#
# Track frame offsets:
#	150
#	18693
#	35017
#	50035
#	66697
#	86243
#	101149
#	124014
#	139892
#	152531
#	167577
#	207310
#	221603
#	242720
#	257950
#	275573
#	293133
#
# Disc length: 4127 seconds
#
# Revision: 0
# Processed by: cddbd v1.5.2PL0 Copyright (c) Steve Scherf et al.
# Submitted via: EasyCDDAExtractor 11.5.3.1
#
DISCID=13101d11
DTITLE=Ray Goodman Brown - The Greatest Hits
DYEAR=1900
DGENRE=r&B
TTITLE0=Not On The Outside
TTITLE1=Love On A 2-Way Street
TTITLE2=Lovely Way She Loves
TTITLE3=Gotta Find A Way
TTITLE4=Special Lady
TTITLE5=Look At Me
TTITLE6=Inside Of You
TTITLE7=Just Because He Wants TO Make Love
TTITLE8=Sunday
TTITLE9=I Do
TTITLE10=Sexy Mama
TTITLE11=Girls
TTITLE12=Happy
TTITLE13=I Don't Wanna Go
TTITLE14=With You
TTITLE15=All I Have
TTITLE16=I Could Have Loved You
EXTD=
EXTT0=
EXTT1=
EXTT2=
EXTT3=
EXTT4=
EXTT5=
EXTT6=
EXTT7=
EXTT8=
EXTT9=
EXTT10=
EXTT11=
EXTT12=
EXTT13=
EXTT14=
EXTT15=
EXTT16=
PLAYORDER=
